<svg width="55" height="72" viewBox="0 0 55 72" fill="none" xmlns="http://www.w3.org/2000/svg">
<path d="M52.5246 10.886C49.0845 9.40922 42.9212 15.637 37.0276 25.8058C35.8134 10.886 32.011 0 27.5001 0C22.9893 0 19.1864 10.8944 17.9723 25.8058C12.0787 15.637 5.91536 9.40922 2.4753 10.886C-2.16202 12.8776 -0.0961065 28.1266 7.10439 44.9452C13.7231 60.4136 22.3736 71.8143 27.3314 72C27.3651 72 27.4071 72 27.4409 72C27.4577 72 27.4833 72 27.5001 72C27.517 72 27.5422 72 27.559 72C27.5927 72 27.6348 72 27.6685 72C32.6263 71.8143 41.2687 60.4136 47.8959 44.9452C55.0964 28.1266 57.1619 12.8776 52.5246 10.886Z" fill="#F85A40"/>
</svg>
